<svg width="34" height="34" viewBox="0 0 34 34" fill="none" xmlns="http://www.w3.org/2000/svg">
<rect width="34" height="34" fill="#2A2F3F"/>
<rect width="34" height="32" fill="#585F75"/>
<path fill-rule="evenodd" clip-rule="evenodd" d="M20.9932 22.0009C21.5582 22.7018 22.2363 23.495 22.2363 23.495C26.399 23.3659 28 20.6912 28 20.6912C28 14.7515 25.2877 9.93701 25.2877 9.93701C22.5753 7.94481 19.9949 8.00015 19.9949 8.00015L19.7312 8.29529C22.9332 9.2545 24.4212 10.638 24.4212 10.638C22.4623 9.58653 20.5411 9.07004 18.7517 8.86713C17.3955 8.71956 16.0959 8.75645 14.9469 8.90402C14.8483 8.90402 14.764 8.91808 14.6689 8.93392L14.6267 8.94091C13.9675 8.99625 12.3664 9.23605 10.351 10.103C9.65411 10.4166 9.23973 10.638 9.23973 10.638C9.23973 10.638 10.8031 9.18072 14.1935 8.22151L14.0051 8.00015C14.0051 8.00015 11.4247 7.94481 8.71233 9.93701C8.71233 9.93701 6 14.7515 6 20.6912C6 20.6912 7.58219 23.3659 11.7449 23.495C11.7449 23.495 12.4418 22.6649 13.0068 21.964C10.6147 21.263 9.71062 19.7873 9.71062 19.7873C9.71062 19.7873 9.89897 19.9164 10.238 20.1009C10.2568 20.1193 10.2757 20.1378 10.3134 20.1562C10.3416 20.1747 10.3699 20.1885 10.3981 20.2024C10.4264 20.2162 10.4546 20.23 10.4829 20.2485C10.9538 20.5067 11.4247 20.7096 11.8579 20.8756C12.6301 21.1708 13.5531 21.4659 14.6267 21.6688C16.0394 21.9271 17.6969 22.0193 19.5051 21.6873C20.3904 21.5397 21.2945 21.2815 22.2363 20.8941C22.8955 20.6543 23.6301 20.3038 24.4024 19.8058C24.4024 19.8058 23.4606 21.3184 20.9932 22.0009ZM11.5565 16.9282C11.5565 15.8029 12.4041 14.8806 13.4777 14.8806C14.5514 14.8806 15.4178 15.8029 15.399 16.9282C15.399 18.0534 14.5514 18.9757 13.4777 18.9757C12.4229 18.9757 11.5565 18.0534 11.5565 16.9282ZM18.4315 16.9282C18.4315 15.8029 19.2791 14.8806 20.3527 14.8806C21.4264 14.8806 22.274 15.8029 22.274 16.9282C22.274 18.0534 21.4264 18.9757 20.3527 18.9757C19.2979 18.9757 18.4315 18.0534 18.4315 16.9282Z" fill="white"/>
</svg>
