<svg width="22" height="16" viewBox="0 0 22 16" fill="none" xmlns="http://www.w3.org/2000/svg">
<path fill-rule="evenodd" clip-rule="evenodd" d="M14.9932 14.0009C15.5582 14.7018 16.2363 15.495 16.2363 15.495C20.399 15.3659 22 12.6912 22 12.6912C22 6.75148 19.2877 1.93701 19.2877 1.93701C16.5753 -0.0551854 13.9949 0.000153292 13.9949 0.000153292L13.7312 0.295293C16.9332 1.2545 18.4212 2.63797 18.4212 2.63797C16.4623 1.58653 14.5411 1.07004 12.7517 0.867129C11.3955 0.719559 10.0959 0.75645 8.94692 0.904021C8.84826 0.904021 8.76395 0.918079 8.66894 0.933922L8.62671 0.940912C7.96747 0.996251 6.36644 1.23605 4.35103 2.10303C3.65411 2.41661 3.23973 2.63797 3.23973 2.63797C3.23973 2.63797 4.80308 1.18072 8.19349 0.221509L8.00514 0.000153292C8.00514 0.000153292 5.42466 -0.0551854 2.71233 1.93701C2.71233 1.93701 0 6.75148 0 12.6912C0 12.6912 1.58219 15.3659 5.74486 15.495C5.74486 15.495 6.44178 14.6649 7.00685 13.964C4.61473 13.263 3.71062 11.7873 3.71062 11.7873C3.71062 11.7873 3.89897 11.9164 4.23801 12.1009C4.25685 12.1193 4.27569 12.1378 4.31336 12.1562C4.34161 12.1747 4.36986 12.1885 4.39812 12.2024C4.42637 12.2162 4.45462 12.23 4.48288 12.2485C4.95377 12.5067 5.42466 12.7096 5.85788 12.8756C6.63014 13.1708 7.55308 13.4659 8.62671 13.6688C10.0394 13.9271 11.6969 14.0193 13.5051 13.6873C14.3904 13.5397 15.2945 13.2815 16.2363 12.8941C16.8955 12.6543 17.6301 12.3038 18.4024 11.8058C18.4024 11.8058 17.4606 13.3184 14.9932 14.0009ZM5.55649 8.92816C5.55649 7.80293 6.4041 6.88062 7.47772 6.88062C8.55135 6.88062 9.41779 7.80293 9.39896 8.92816C9.39896 10.0534 8.55135 10.9757 7.47772 10.9757C6.42293 10.9757 5.55649 10.0534 5.55649 8.92816ZM12.4315 8.92816C12.4315 7.80293 13.2791 6.88062 14.3527 6.88062C15.4264 6.88062 16.274 7.80293 16.274 8.92816C16.274 10.0534 15.4264 10.9757 14.3527 10.9757C13.2979 10.9757 12.4315 10.0534 12.4315 8.92816Z" fill="#606479"/>
</svg>
