<svg width="16" height="12" viewBox="0 0 16 12" fill="none" xmlns="http://www.w3.org/2000/svg">
<path fill-rule="evenodd" clip-rule="evenodd" d="M10.9041 10.2969C11.3151 10.8125 11.8082 11.3958 11.8082 11.3958C14.8356 11.3008 16 9.33373 16 9.33373C16 4.96538 14.0274 1.42458 14.0274 1.42458C12.0548 -0.0405861 10.1781 0.000112739 10.1781 0.000112739L9.9863 0.217173C12.3151 0.922621 13.3973 1.9401 13.3973 1.9401C11.9726 1.16682 10.5753 0.78696 9.27397 0.63773C8.28767 0.5292 7.34247 0.556332 6.50685 0.664862C6.4351 0.664862 6.37378 0.675201 6.30468 0.686853L6.27397 0.691994C5.79452 0.732693 4.63014 0.909055 3.16438 1.54667C2.65754 1.7773 2.35617 1.9401 2.35617 1.9401C2.35617 1.9401 3.49315 0.868357 5.9589 0.162909L5.82192 0.000112739C5.82192 0.000112739 3.94521 -0.0405861 1.9726 1.42458C1.9726 1.42458 0 4.96538 0 9.33373C0 9.33373 1.15068 11.3008 4.17808 11.3958C4.17808 11.3958 4.68493 10.7853 5.09589 10.2698C3.35617 9.75429 2.69863 8.66898 2.69863 8.66898C2.69863 8.66898 2.83562 8.76395 3.08219 8.89961C3.09589 8.91318 3.10959 8.92674 3.13699 8.94031C3.15753 8.95388 3.17808 8.96405 3.19863 8.97423C3.21918 8.9844 3.23973 8.99458 3.26027 9.00814C3.60274 9.19807 3.94521 9.3473 4.26027 9.4694C4.82192 9.68646 5.49315 9.90352 6.27397 10.0527C7.30137 10.2427 8.50685 10.3105 9.82192 10.0663C10.4658 9.95778 11.1233 9.76786 11.8082 9.48296C12.2877 9.3066 12.8219 9.04884 13.3836 8.68255C13.3836 8.68255 12.6986 9.79499 10.9041 10.2969ZM4.04108 6.56621C4.04108 5.73867 4.65752 5.06035 5.43834 5.06035C6.21917 5.06035 6.8493 5.73867 6.83561 6.56621C6.83561 7.39376 6.21917 8.07207 5.43834 8.07207C4.67122 8.07207 4.04108 7.39376 4.04108 6.56621ZM9.04109 6.56621C9.04109 5.73867 9.65752 5.06035 10.4383 5.06035C11.2192 5.06035 11.8356 5.73867 11.8356 6.56621C11.8356 7.39376 11.2192 8.07207 10.4383 8.07207C9.67122 8.07207 9.04109 7.39376 9.04109 6.56621Z" fill="#83889E"/>
</svg>
