<svg width="14" height="17" viewBox="0 0 14 17" fill="none" xmlns="http://www.w3.org/2000/svg">
<rect x="2" y="2" width="10" height="13" fill="#83889E"/>
<rect x="2" width="10" height="2" fill="#B2B7CA"/>
<rect x="2" y="15" width="10" height="2" fill="#595D72"/>
<rect x="2" y="2" width="13" height="2" transform="rotate(90 2 2)" fill="#B2B7CA"/>
<rect x="14" y="2" width="13" height="2" transform="rotate(90 14 2)" fill="#595D72"/>
<path fill-rule="evenodd" clip-rule="evenodd" d="M6 6H4V11H6V13H8V11H10V6H8V4H6V6Z" fill="#83889E"/>
<rect x="2" y="2" width="2" height="2" fill="#83889E"/>
<rect x="10" y="2" width="2" height="2" fill="#83889E"/>
<rect x="10" y="13" width="2" height="2" fill="#83889E"/>
<rect x="2" y="13" width="2" height="2" fill="#83889E"/>
<rect x="4" y="6" width="2" height="5" fill="#595D72"/>
<rect x="6" y="4" width="2" height="2" fill="#595D72"/>
<rect x="6" y="11" width="2" height="2" fill="#B2B7CA"/>
<rect x="8" y="6" width="2" height="5" fill="#B2B7CA"/>
</svg>
