<svg width="24" height="24" viewBox="0 0 24 24" fill="none" xmlns="http://www.w3.org/2000/svg">
<path d="M16.3999 18C14.8569 18 13.539 17.4138 12.443 16.2397C11.3471 15.0655 10.7999 13.6534 10.7999 12C10.7999 11.0579 10.4861 10.2498 9.86006 9.57909C9.23402 8.90836 8.47966 8.57211 7.60006 8.57211C6.72049 8.57211 5.96614 8.90836 5.34009 9.57909C4.71405 10.2498 4.40029 11.0579 4.40029 12C4.40029 12.9421 4.71405 13.7502 5.34009 14.4209C5.96614 15.0916 6.72049 15.4279 7.60006 15.4279C7.92131 15.4279 8.22593 15.3835 8.51368 15.2942C8.85453 15.1886 9.2535 15.1862 9.61333 15.2913C9.97333 15.3966 10.2888 15.6077 10.4707 15.9236C10.7472 16.404 10.6838 17.0346 10.2411 17.2942C9.4392 17.7646 8.5592 18 7.60006 18C6.05703 18 4.73911 17.4138 3.64319 16.2397C2.54727 15.0655 2 13.6534 2 12C2 10.3466 2.54727 8.9345 3.64319 7.76036C4.73911 6.58623 6.05703 6 7.60006 6C9.14313 6 10.461 6.58623 11.557 7.76036C12.6529 8.9345 13.2001 10.3466 13.2001 12C13.2001 12.9421 13.5139 13.7502 14.1399 14.4209C14.766 15.0916 15.5203 15.4279 16.3999 15.4279C17.2795 15.4279 18.0338 15.0916 18.6599 14.4209C19.2859 13.7502 19.5997 12.9421 19.5997 12C19.5997 11.0579 19.2859 10.2498 18.6599 9.57909C18.0338 8.90836 17.2795 8.57211 16.3999 8.57211C16.0787 8.57211 15.7741 8.61655 15.4863 8.70577C15.1455 8.81145 14.7465 8.81387 14.3867 8.70867C14.0267 8.60344 13.7112 8.39231 13.5293 8.0764C13.2528 7.59596 13.3162 6.96547 13.7589 6.70582C14.5608 6.23542 15.4408 6 16.3999 6C17.943 6 19.2609 6.58623 20.3568 7.76036C21.4527 8.9345 22 10.3466 22 12C22 13.6534 21.4527 15.0655 20.3568 16.2397C19.2609 17.4138 17.943 18 16.3999 18Z" fill="white"/>
</svg>
