<svg width="360" height="200" viewBox="0 0 360 200" fill="none" xmlns="http://www.w3.org/2000/svg">
<path d="M253.719 199.218C226.37 199.218 202.986 189.476 183.567 169.992C164.147 150.509 154.438 127.047 154.438 99.6089C154.438 84.3909 149.037 71.3633 138.235 60.5262C127.434 49.6892 114.449 44.2706 99.2812 44.2706C84.1133 44.2706 71.1286 49.6892 60.3271 60.5262C49.5257 71.3633 44.125 84.3909 44.125 99.6089C44.125 114.827 49.5257 127.854 60.3271 138.692C71.1286 149.529 84.1133 154.947 99.2812 154.947C104.842 154.947 110.104 154.225 115.065 152.782C127.383 149.198 143.787 152.625 150.503 163.555C155.544 171.761 154.546 182.864 146.104 187.5C131.878 195.312 116.27 199.218 99.2812 199.218C71.9329 199.218 48.549 189.476 29.1294 169.992C9.7098 150.509 0 127.047 0 99.6089C0 72.1703 9.7098 48.7092 29.1294 29.2255C48.549 9.74184 71.9329 0 99.2812 0C126.63 0 150.014 9.74184 169.433 29.2255C188.853 48.7092 198.562 72.1703 198.562 99.6089C198.562 114.827 203.963 127.854 214.765 138.692C225.566 149.529 238.551 154.947 253.719 154.947C268.887 154.947 281.871 149.529 292.673 138.692C303.474 127.854 308.875 114.827 308.875 99.6089C308.875 84.3909 303.474 71.3633 292.673 60.5262C281.871 49.6892 268.887 44.2706 253.719 44.2706C248.158 44.2706 242.896 44.9924 237.935 46.4361C225.617 50.02 209.213 46.593 202.497 35.6628C197.456 27.4564 198.454 16.3543 206.896 11.7182C221.122 3.90608 236.73 0 253.719 0C281.067 0 304.451 9.74184 323.871 29.2255C343.29 48.7092 353 72.1703 353 99.6089C353 127.047 343.29 150.509 323.871 169.992C304.451 189.476 281.067 199.218 253.719 199.218Z" fill="white"/>
<path d="M95.4116 53.5366C95.221 51.0767 93.067 49.2173 90.6331 49.6212C80.5372 51.2967 71.1361 55.9642 63.6757 63.0687C56.2152 70.1732 51.0941 79.3351 48.9275 89.3371C48.4051 91.7484 50.1572 93.9906 52.6048 94.3011C55.0524 94.6116 57.2647 92.8706 57.8313 90.4693C59.7102 82.5067 63.8663 75.2248 69.8371 69.5389C75.808 63.8529 83.2841 60.0574 91.3291 58.5697C93.7551 58.1211 95.6022 55.9964 95.4116 53.5366Z" fill="white"/>
<path d="M52.2327 100.19C49.7655 100.19 47.7452 102.194 47.96 104.652C47.9811 104.894 48.0039 105.135 48.0285 105.377C48.2781 107.831 50.638 109.421 53.0615 108.959L53.5312 108.869C55.6953 108.456 57.0952 106.367 56.8878 104.174C56.6805 101.98 54.914 100.19 52.7108 100.19H52.2327Z" fill="white"/>
<path d="M256.423 146.846C256.614 149.306 258.768 151.165 261.202 150.761C271.298 149.086 280.699 144.418 288.159 137.314C295.62 130.209 300.741 121.048 302.907 111.045C303.43 108.634 301.678 106.392 299.23 106.081C296.782 105.771 294.57 107.512 294.003 109.913C292.125 117.876 287.968 125.158 281.998 130.844C276.027 136.53 268.551 140.325 260.506 141.813C258.08 142.262 256.233 144.386 256.423 146.846Z" fill="white"/>
<path d="M299.602 100.192C302.069 100.192 304.09 98.1885 303.875 95.7307C303.853 95.481 303.829 95.2315 303.804 94.9821C303.553 92.5277 301.192 90.9391 298.769 91.4025L298.309 91.4905C296.14 91.9053 294.738 94.0004 294.946 96.1992C295.154 98.3979 296.925 100.192 299.134 100.192H299.602Z" fill="white"/>
</svg>
