<svg width="24" height="24" viewBox="0 0 24 24" fill="none" xmlns="http://www.w3.org/2000/svg">
<path d="M16 5V4H18C18.5304 4 19.0391 4.21071 19.4142 4.58579C19.7893 4.96086 20 5.46957 20 6V20C20 20.5304 19.7893 21.0391 19.4142 21.4142C19.0391 21.7893 18.5304 22 18 22H6C5.46957 22 4.96086 21.7893 4.58579 21.4142C4.21071 21.0391 4 20.5304 4 20V6C4 5.46957 4.21071 4.96086 4.58579 4.58579C4.96086 4.21071 5.46957 4 6 4H8V5" fill="white"/>
<path d="M16 5V4H18C18.5304 4 19.0391 4.21071 19.4142 4.58579C19.7893 4.96086 20 5.46957 20 6V20C20 20.5304 19.7893 21.0391 19.4142 21.4142C19.0391 21.7893 18.5304 22 18 22H6C5.46957 22 4.96086 21.7893 4.58579 21.4142C4.21071 21.0391 4 20.5304 4 20V6C4 5.46957 4.21071 4.96086 4.58579 4.58579C4.96086 4.21071 5.46957 4 6 4H8V5" stroke="white" stroke-width="2" stroke-linecap="round" stroke-linejoin="round"/>
<path d="M15 2H9C8.44772 2 8 2.44772 8 3V5C8 5.55228 8.44772 6 9 6H15C15.5523 6 16 5.55228 16 5V3C16 2.44772 15.5523 2 15 2Z" stroke="white" stroke-width="2" stroke-linecap="round" stroke-linejoin="round"/>
<path fill-rule="evenodd" clip-rule="evenodd" d="M9.5 2H8V3.5H9C9 3.22386 9.22386 3 9.5 3V2Z" fill="white"/>
<path fill-rule="evenodd" clip-rule="evenodd" d="M16 3.5L16 2L14.5 2L14.5 3C14.7761 3 15 3.22386 15 3.5L16 3.5Z" fill="white"/>
<path fill-rule="evenodd" clip-rule="evenodd" d="M14.5 6L16 6L16 4.5L15 4.5C15 4.77614 14.7761 5 14.5 5L14.5 6Z" fill="white"/>
<path fill-rule="evenodd" clip-rule="evenodd" d="M8 4.5L8 6L9.5 6L9.5 5C9.22386 5 9 4.77614 9 4.5L8 4.5Z" fill="white"/>
</svg>
