<svg width="34" height="34" viewBox="0 0 34 34" fill="none" xmlns="http://www.w3.org/2000/svg">
<rect y="2.02295" width="34" height="31.9771" fill="#2A2F3F"/>
<rect width="34" height="31.9771" fill="#585F75"/>
<g clip-path="url(#clip0)">
<rect x="5.3125" y="3.29034" width="22.3125" height="27.4194" fill="white"/>
<path fill-rule="evenodd" clip-rule="evenodd" d="M3.22468 2.23193C1.0625 4.46386 1.0625 8.05611 1.0625 15.2406V16.5659C1.0625 23.7503 1.0625 27.3426 3.22468 29.5745C5.38687 31.8065 8.86686 31.8065 15.8268 31.8065H17.1107C24.0706 31.8065 27.5507 31.8065 29.7128 29.5745C31.875 27.3426 31.875 23.7503 31.875 16.5659V15.2406C31.875 8.05611 31.875 4.46386 29.7128 2.23193C27.5507 0 24.0706 0 17.1107 0H15.8268C8.86686 0 5.38687 0 3.22468 2.23193V2.23193ZM7.16087 9.93952H9.40813C9.98246 9.93952 10.1985 10.1989 10.4139 10.8412C11.513 14.1453 13.3662 17.033 14.128 17.033C14.4137 17.033 14.5448 16.8972 14.5448 16.1484V12.7331C14.4932 11.7609 14.1641 11.3405 13.9204 11.0291C13.7698 10.8367 13.6518 10.686 13.6518 10.4726C13.6518 10.2132 13.8666 9.93952 14.2237 9.93952H17.7551C18.2314 9.93952 18.3972 10.2023 18.3972 10.7921V15.3867C18.3972 15.878 18.6039 16.0501 18.7468 16.0501C19.0325 16.0501 19.2706 15.878 19.7944 15.3375C21.4133 13.4702 22.5561 10.5954 22.5561 10.5954C22.699 10.2515 22.9624 9.93952 23.5338 9.93952H25.7811C26.4607 9.93952 26.6035 10.3006 26.4607 10.7921C26.1749 12.1434 23.437 16.1238 23.437 16.1238C23.1989 16.5169 23.1037 16.7135 23.437 17.1557C23.5544 17.3254 23.8048 17.5786 24.0914 17.8683C24.3861 18.1661 24.719 18.5027 24.9846 18.8266C25.9499 19.9473 26.6774 20.8928 26.88 21.5444C27.0652 22.1983 26.7442 22.5296 26.1021 22.5296H23.8548C23.2529 22.5296 22.9498 22.1816 22.2949 21.4297C22.0172 21.111 21.6764 20.7197 21.2229 20.2516C19.8896 18.9248 19.3182 18.7528 18.9848 18.7528C18.5325 18.7528 18.3972 18.8851 18.3972 19.5477V21.6276C18.3972 22.1983 18.2205 22.5296 16.792 22.5296C14.4112 22.5296 11.7948 21.0378 9.93778 18.286C7.15224 14.2564 6.39037 11.2097 6.39037 10.5954C6.39037 10.2515 6.51879 9.93952 7.16087 9.93952V9.93952Z" fill="#585F75"/>
</g>
<defs>
<clipPath id="clip0">
<rect width="30.8125" height="31.8065" fill="white" transform="translate(1.0625)"/>
</clipPath>
</defs>
</svg>
