<svg width="21" height="13" viewBox="0 0 21 13" fill="none" xmlns="http://www.w3.org/2000/svg">
<path d="M3.01776 0H0.770505C0.128424 0 0 0.311969 0 0.655876C0 1.2702 0.761878 4.31693 3.54742 8.34648C5.40445 11.0983 8.02081 12.5901 10.4017 12.5901C11.8301 12.5901 12.0069 12.2587 12.0069 11.6881V9.6082C12.0069 8.94557 12.1422 8.8133 12.5945 8.8133C12.9278 8.8133 13.4992 8.98532 14.8325 10.3121C15.2857 10.7798 15.6263 11.1709 15.9038 11.4894L15.9045 11.4902C16.5594 12.242 16.8626 12.5901 17.4645 12.5901H19.7117C20.3538 12.5901 20.6749 12.2587 20.4897 11.6049C20.287 10.9533 19.5595 10.0078 18.5942 8.88705C18.3286 8.56316 17.9957 8.22661 17.7011 7.92875C17.4145 7.63905 17.164 7.38586 17.0466 7.21622C16.7133 6.77398 16.8085 6.57738 17.0466 6.1843C17.0466 6.1843 19.7846 2.20386 20.0703 0.852546C20.2131 0.36107 20.0703 0 19.3907 0H17.1434C16.5721 0 16.3086 0.311969 16.1657 0.655876C16.1657 0.655876 15.023 3.53065 13.404 5.39802C12.8802 5.93853 12.6421 6.11055 12.3564 6.11055C12.2136 6.11055 12.0068 5.93853 12.0068 5.44719V0.852546C12.0068 0.262801 11.841 0 11.3647 0H7.83331C7.47627 0 7.26148 0.273668 7.26148 0.53309C7.26148 0.746434 7.37937 0.89708 7.52981 1.08933C7.77355 1.4007 8.10279 1.82138 8.1544 2.79353V6.20889C8.1544 6.95766 8.02332 7.09344 7.73766 7.09344C6.97582 7.09344 5.12264 4.20581 4.02354 0.901648C3.80817 0.259422 3.5921 0 3.01776 0Z" fill="#606479"/>
</svg>
